<?xml version="1.0" standalone="no"?>
<!DOCTYPE svg PUBLIC "-//W3C//DTD SVG 20010904//EN"
 "http://www.w3.org/TR/2001/REC-SVG-20010904/DTD/svg10.dtd">
<svg version="1.0" xmlns="http://www.w3.org/2000/svg"
 width="512.000000pt" height="512.000000pt" viewBox="0 0 512.000000 512.000000"
 preserveAspectRatio="xMidYMid meet">
<metadata>
Created by potrace 1.14, written by Peter Selinger 2001-2017
</metadata>
<g transform="translate(0.000000,512.000000) scale(0.100000,-0.100000)"
fill="#000000" stroke="none">
<path d="M2285 4635 c-48 -14 -103 -42 -129 -64 -10 -9 -57 -36 -105 -61 -47
-25 -86 -51 -86 -58 0 -7 -10 -21 -21 -30 -12 -9 -31 -36 -43 -59 -11 -23 -25
-44 -31 -48 -15 -10 -78 -107 -99 -156 -56 -127 -81 -374 -49 -489 9 -30 19
-72 22 -92 4 -21 11 -38 16 -38 6 0 10 -7 10 -16 0 -9 9 -18 20 -21 23 -6 25
-14 8 -32 -8 -9 -8 -11 -2 -8 10 6 29 -20 24 -32 -1 -2 3 -7 10 -11 19 -12 70
-172 70 -222 0 -26 6 -67 13 -90 8 -24 19 -72 26 -108 15 -79 75 -276 106
-346 12 -27 36 -66 54 -86 28 -33 31 -41 31 -105 0 -39 -7 -92 -15 -118 -8
-27 -13 -51 -11 -53 9 -8 36 32 36 52 0 13 3 37 6 54 l6 31 97 -72 c53 -40
108 -79 123 -86 15 -8 36 -21 45 -30 10 -9 34 -28 53 -41 19 -14 46 -34 60
-47 42 -36 131 -93 147 -93 9 0 13 -6 10 -14 -6 -15 38 -25 113 -26 37 -1 42
-2 26 -11 -13 -8 -15 -13 -6 -19 9 -5 8 -16 -4 -44 -8 -20 -12 -36 -8 -36 4 0
7 -30 8 -67 1 -52 -3 -71 -15 -80 -11 -9 -12 -12 -3 -13 8 0 10 -5 5 -12 -10
-17 -11 -78 -1 -78 5 0 13 -11 18 -25 14 -37 35 -40 67 -11 15 14 33 26 39 26
7 0 20 12 30 28 9 15 28 36 40 47 48 42 64 102 66 247 1 105 -2 140 -15 168
-15 31 -16 54 -8 184 8 129 12 152 30 175 93 114 132 201 164 364 21 104 22
107 48 107 15 0 37 9 50 21 13 11 19 18 13 15 -16 -8 -25 17 -13 35 5 8 9 24
9 37 0 12 3 22 8 22 4 0 8 19 10 42 2 24 7 47 12 52 13 13 13 117 0 150 -14
38 -2 32 14 -6 l13 -33 12 43 c13 48 6 125 -14 158 -30 47 -28 85 12 179 34
84 37 97 37 187 -1 70 -7 117 -23 170 -28 93 -114 268 -146 298 -14 13 -25 29
-25 36 0 6 -28 38 -63 71 -46 43 -80 65 -123 79 -81 28 -192 54 -230 54 -43 0
-137 31 -147 48 -7 11 -13 9 -30 -9 -20 -21 -21 -21 -28 -3 -3 10 -5 22 -2 27
2 4 -1 7 -7 7 -7 0 -9 -9 -5 -22 l7 -23 -17 23 c-9 12 -22 22 -28 21 -9 0 -9
-2 1 -6 6 -2 12 -11 12 -19 0 -9 -5 -12 -11 -8 -17 10 -138 21 -133 12 7 -11
-13 -10 -34 1 -30 16 -86 18 -127 6z m89 -842 c-4 -22 -3 -25 5 -13 6 8 11 11
11 6 0 -6 7 -1 15 10 8 10 15 14 15 8 0 -6 -9 -19 -20 -29 -11 -10 -20 -26
-20 -36 0 -10 -5 -21 -12 -25 -8 -5 -9 -1 -5 12 5 14 2 12 -13 -6 -13 -17 -20
-20 -20 -10 -1 10 -4 9 -10 -5 -5 -12 -9 -14 -9 -6 -1 11 -4 10 -15 -4 -8 -11
-19 -16 -30 -12 -10 4 -15 3 -11 -3 3 -6 2 -10 -4 -10 -5 0 -13 -9 -16 -20 -3
-11 -14 -20 -23 -21 -14 0 -14 -2 2 -8 11 -4 41 -4 68 0 27 4 76 6 109 5 50
-3 59 -1 55 11 -3 8 -6 19 -6 24 0 11 -50 34 -65 30 -5 -2 -6 1 -2 6 5 4 14 8
20 8 5 0 12 7 14 15 4 13 3 13 -6 0 -9 -13 -11 -13 -11 1 0 9 9 27 21 40 20
24 20 24 9 1 -8 -17 -8 -22 2 -20 8 2 12 -6 11 -22 -2 -22 -1 -23 10 -9 15 20
37 13 37 -12 0 -18 1 -18 20 1 11 11 20 24 20 29 0 5 7 12 16 15 12 4 14 1 9
-14 -8 -24 1 -26 21 -5 9 8 12 15 8 15 -4 0 13 16 37 34 46 37 56 39 45 9 -4
-10 -7 -19 -7 -20 0 -2 -4 -16 -9 -32 -7 -25 -6 -29 8 -24 11 5 14 2 9 -10 -4
-12 -1 -15 14 -12 12 2 19 -2 19 -11 0 -16 26 -19 35 -4 3 5 12 7 20 3 8 -3
15 0 15 6 0 6 18 22 39 37 41 27 137 40 145 19 3 -6 7 -7 13 0 4 6 21 12 37
13 21 3 26 1 20 -10 -7 -11 -5 -11 9 0 9 8 21 11 27 7 5 -3 10 1 10 9 0 23 16
20 34 -6 21 -29 20 -38 -1 -38 -16 0 -16 -2 -3 -11 12 -8 8 -9 -15 -5 -16 3
-24 3 -17 0 28 -13 9 -21 -30 -12 -65 14 -98 16 -104 6 -3 -4 -10 -6 -15 -3
-5 4 -9 -1 -9 -10 0 -10 -5 -13 -12 -9 -8 5 -9 0 -6 -14 4 -12 2 -20 -3 -16
-5 3 -9 1 -9 -4 0 -13 62 -22 74 -11 5 4 18 3 29 -3 11 -5 44 -8 73 -6 29 3
51 1 48 -4 -3 -4 2 -8 12 -8 14 0 15 2 3 18 -8 9 -20 21 -27 25 -15 10 -6 27
14 27 8 0 13 -4 10 -9 -3 -5 1 -12 10 -15 8 -3 12 -10 9 -16 -3 -5 -1 -10 5
-10 7 0 10 -7 6 -15 -3 -8 -1 -15 4 -15 12 0 26 -27 33 -67 l6 -31 -32 16
c-40 21 -239 24 -258 5 -10 -10 -6 -11 22 -3 104 30 265 -9 284 -70 5 -15 14
-18 51 -15 41 2 44 1 30 -14 -10 -11 -12 -21 -6 -31 14 -21 12 -104 -2 -118
-9 -9 -9 -12 0 -12 7 0 12 -12 11 -27 l-1 -28 -8 25 c-7 21 -8 22 -10 5 -1
-11 -3 -30 -6 -43 -2 -14 0 -21 6 -17 6 3 10 -5 10 -19 0 -14 -5 -28 -10 -31
-6 -4 -7 -11 -4 -17 5 -7 2 -8 -6 -3 -10 6 -12 3 -8 -13 4 -12 2 -22 -4 -22
-6 0 -7 -8 -4 -17 4 -10 4 -14 0 -10 -8 8 -28 -28 -49 -91 -13 -37 -13 -47 -3
-53 13 -8 20 -129 7 -129 -3 0 -13 -17 -22 -37 -9 -21 -23 -47 -32 -58 -8 -11
-28 -38 -45 -60 -16 -22 -33 -44 -37 -50 -5 -5 -14 -22 -22 -37 -8 -16 -18
-28 -22 -28 -4 0 -22 -12 -40 -27 -18 -16 -30 -22 -25 -15 13 22 2 13 -68 -51
-78 -73 -156 -107 -253 -108 -112 -2 -194 28 -343 126 -82 54 -103 73 -118
108 -10 23 -26 48 -35 56 -10 7 -17 19 -17 26 0 6 -9 20 -20 30 -11 10 -18 21
-15 25 2 4 -5 17 -16 28 -10 12 -19 23 -19 24 1 2 -4 17 -10 33 -32 80 -68
254 -74 355 -2 25 -4 48 -6 53 -1 4 -3 10 -5 15 -1 4 -5 15 -9 24 -13 29 -3
231 12 236 6 2 12 10 12 18 0 12 8 11 40 -7 22 -13 40 -26 40 -31 0 -4 11 -8
25 -8 33 0 32 16 -2 25 -16 3 -50 20 -76 37 -39 25 -47 35 -43 52 3 12 6 36 6
54 0 25 5 35 20 39 11 3 24 20 30 39 12 35 30 46 30 19 0 -9 8 -30 17 -48 9
-18 17 -34 16 -37 -1 -3 10 -6 24 -6 15 -1 23 2 20 10 -3 7 4 18 14 24 10 7
18 15 16 20 -1 4 0 7 3 7 11 1 75 41 92 58 10 9 27 17 38 17 11 0 20 5 20 11
0 5 4 7 10 4 15 -9 60 25 60 45 0 20 10 50 16 50 3 0 2 -12 -2 -27z m306 -12
c0 -5 -7 -12 -16 -15 -14 -5 -15 -4 -4 9 14 17 20 19 20 6z m660 -667 c0 -8
-4 -14 -10 -14 -5 0 -10 9 -10 21 0 11 5 17 10 14 6 -3 10 -13 10 -21z m-130
-206 c0 -16 -3 -19 -11 -11 -6 6 -8 16 -5 22 11 17 16 13 16 -11z m-225 -488
c-3 -5 -20 -19 -38 -30 l-32 -22 35 31 c35 32 46 38 35 21z"/>
<path d="M2350 3529 c174 -39 210 -68 210 -168 0 -51 -6 -61 -27 -40 -9 9 -10
7 -6 -9 3 -12 10 -19 15 -16 16 10 -2 -36 -30 -79 -14 -21 -38 -45 -54 -53
-15 -8 -28 -17 -28 -20 0 -2 9 0 20 6 11 6 26 8 32 4 6 -4 8 -3 5 3 -4 6 3 19
14 29 65 58 94 205 52 262 -28 40 -118 81 -188 86 -59 5 -59 5 -15 -5z"/>
<path d="M2195 3515 c-42 -15 -85 -56 -85 -81 0 -21 6 -17 28 20 15 25 35 40
74 54 59 23 45 29 -17 7z"/>
<path d="M2828 3489 c-21 -10 -45 -34 -55 -52 -21 -41 -34 -117 -19 -117 6 0
3 -6 -6 -13 -17 -14 -9 -42 12 -42 6 0 21 -18 33 -40 12 -21 41 -53 65 -69 36
-25 53 -30 110 -32 l67 -3 -68 9 c-78 10 -121 37 -165 103 -24 35 -27 50 -27
120 0 75 1 80 31 105 17 15 39 32 50 39 30 19 13 14 -28 -8z"/>
<path d="M2215 3448 c-11 -6 -31 -17 -45 -26 -23 -15 -23 -16 -5 -23 25 -10
61 -11 52 -2 -4 3 2 13 14 21 18 12 22 11 44 -12 31 -33 58 -33 85 1 l21 26
29 -22 c17 -12 30 -17 30 -12 0 6 -17 22 -37 36 -31 20 -49 25 -103 25 -36 0
-74 -6 -85 -12z"/>
<path d="M2923 3445 c-34 -18 -69 -52 -61 -60 3 -3 16 3 29 14 24 19 25 19 48
0 31 -25 47 -24 75 6 l24 26 19 -25 c24 -30 68 -43 88 -26 23 19 19 24 -31 49
-60 30 -148 37 -191 16z"/>
<path d="M3176 3437 c3 -10 9 -15 12 -12 3 3 0 11 -7 18 -10 9 -11 8 -5 -6z"/>
<path d="M2595 3430 c-8 -13 5 -13 25 0 13 8 13 10 -2 10 -9 0 -20 -4 -23 -10z"/>
<path d="M2111 3361 c-2 -70 19 -121 71 -173 26 -27 53 -48 60 -47 8 0 5 5 -6
12 -73 46 -102 97 -116 197 -7 55 -7 55 -9 11z"/>
<path d="M3207 3383 c-4 -3 -7 -22 -7 -42 0 -44 -32 -116 -68 -156 -16 -17
-19 -23 -7 -15 47 35 81 98 91 169 6 49 5 58 -9 44z"/>
<path d="M3080 3150 c-9 -6 -10 -10 -3 -10 6 0 15 5 18 10 8 12 4 12 -15 0z"/>
<path d="M3245 3141 c-3 -5 -1 -12 5 -16 5 -3 10 1 10 9 0 18 -6 21 -15 7z"/>
<path d="M2268 3133 c7 -3 16 -2 19 1 4 3 -2 6 -13 5 -11 0 -14 -3 -6 -6z"/>
<path d="M2318 3123 c12 -2 32 -2 45 0 12 2 2 4 -23 4 -25 0 -35 -2 -22 -4z"/>
<path d="M2730 2992 c0 -12 -55 -42 -78 -42 -10 0 -31 9 -45 20 -33 26 -74 26
-82 1 -3 -11 -14 -22 -23 -24 -14 -3 -12 -6 8 -14 19 -8 27 -7 36 5 14 19 51
11 84 -18 27 -23 81 -26 144 -8 47 14 56 23 56 58 -1 22 -2 23 -11 8 -9 -17
-12 -17 -49 2 -22 11 -40 17 -40 12z"/>
<path d="M3105 2769 c-10 -30 0 -33 13 -4 6 14 7 25 2 25 -5 0 -12 -9 -15 -21z"/>
<path d="M2878 2754 c-15 -15 -25 -16 -92 -5 -49 8 -81 9 -93 3 -10 -6 -41 -8
-70 -6 -28 2 -80 0 -115 -5 -38 -5 -73 -5 -88 1 -29 11 -70 2 -70 -15 0 -8 14
-14 38 -14 20 -1 107 -4 192 -7 85 -2 183 -7 216 -11 45 -5 72 -2 98 9 39 16
44 29 22 52 -18 18 -18 18 -38 -2z"/>
<path d="M1734 3512 c-6 -4 -15 -18 -19 -32 -6 -20 -5 -23 6 -12 7 6 23 12 36
12 25 0 29 10 11 28 -14 14 -19 14 -34 4z"/>
<path d="M1820 3366 c0 -9 7 -16 16 -16 9 0 14 5 12 12 -6 18 -28 21 -28 4z"/>
<path d="M3387 3173 c-4 -3 -7 -11 -7 -17 0 -6 5 -5 12 2 6 6 9 14 7 17 -3 3
-9 2 -12 -2z"/>
<path d="M1990 2280 c0 -15 21 -23 32 -12 6 6 2 11 -11 15 -12 3 -21 1 -21 -3z"/>
<path d="M2065 2270 c-4 -6 -11 -8 -16 -5 -5 4 -9 2 -9 -3 0 -16 38 -21 44 -6
6 16 -10 29 -19 14z"/>
<path d="M3033 1698 c-18 -18 -34 -46 -37 -63 -5 -21 -4 -24 2 -11 16 37 22
-1 7 -44 -8 -23 -15 -64 -15 -91 0 -45 -2 -49 -45 -80 -27 -20 -48 -43 -51
-58 -3 -14 -7 -32 -10 -38 -5 -18 29 -16 65 4 25 15 31 26 36 68 12 84 26 107
86 138 60 30 104 34 128 13 21 -18 123 -49 147 -44 14 2 1 16 -48 51 -37 26
-73 55 -80 65 -23 30 -129 122 -142 122 -7 0 -26 -15 -43 -32z"/>
<path d="M2480 1667 c-72 -42 -336 -211 -353 -227 -13 -11 15 -50 36 -50 10 0
31 7 47 15 16 8 85 34 152 56 117 39 141 42 193 23 11 -4 0 8 -25 26 -25 18
-47 35 -50 37 -2 2 2 8 10 13 8 5 11 12 7 16 -4 4 8 26 27 48 34 42 54 86 39
86 -4 0 -42 -20 -83 -43z"/>
<path d="M2616 1555 c-11 -8 -15 -15 -9 -15 6 0 16 7 23 15 16 19 11 19 -14 0z"/>
<path d="M4068 460 c-4 -58 -6 -185 -5 -283 2 -172 2 -177 22 -177 23 0 23 -2
10 125 -4 39 -10 153 -14 255 l-7 185 -6 -105z"/>
<path d="M2855 280 c-16 -7 -17 -9 -3 -9 9 -1 20 4 23 9 7 11 7 11 -20 0z"/>
<path d="M1118 30 c-3 -17 -1 -30 4 -30 4 0 8 13 8 30 0 17 -2 30 -4 30 -2 0
-6 -14 -8 -30z"/>
</g>
</svg>
